<?xml version="1.0" encoding="UTF-8"?>
<svg version="1.1" xmlns="http://www.w3.org/2000/svg" width="376" height="117">
<path d="M0 0 C-1.42356456 8.63599484 -3.41439959 17.08082519 -5.5625 25.5625 C-5.87896484 26.83158203 -6.19542969 28.10066406 -6.52148438 29.40820312 C-8.86624765 38.7324953 -8.86624765 38.7324953 -10 41 C-9.11948975 41.153479 -9.11948975 41.153479 -8.22119141 41.31005859 C-1.41563341 42.57419532 5.05425263 44.46691742 11.625 46.625 C12.62917969 46.94984375 13.63335937 47.2746875 14.66796875 47.609375 C17.11363517 48.40130508 19.5575428 49.19823827 22 50 C20.10045518 54.2268948 17.20264344 56.65835788 13.6875 59.5625 C12.74970703 60.35140625 12.74970703 60.35140625 11.79296875 61.15625 C10.49628648 62.24640424 9.19727202 63.3337902 7.89599609 64.41845703 C5.61477447 66.32133544 3.34701897 68.23969076 1.08081055 70.16040039 C0.02192047 71.05771774 -1.03782148 71.95403075 -2.09838867 72.84936523 C-5.52570735 75.74325717 -8.93428716 78.65799105 -12.33422852 81.58398438 C-20.42965429 88.55035486 -28.65376814 95.33491645 -37 102 C-37.66 101.67 -38.32 101.34 -39 101 C-38.63648437 99.8039917 -38.27296875 98.6079834 -37.8984375 97.37573242 C-36.55246251 92.94339774 -35.21193013 88.50943271 -33.87304688 84.07495117 C-33.29250342 82.15490434 -32.71047946 80.23530451 -32.12695312 78.31616211 C-31.28908068 75.55959026 -30.45652339 72.80146145 -29.625 70.04296875 C-29.23127197 68.75376778 -29.23127197 68.75376778 -28.82958984 67.43852234 C-28.58934082 66.63791885 -28.3490918 65.83731537 -28.1015625 65.01245117 C-27.88838379 64.3085173 -27.67520508 63.60458344 -27.45556641 62.87931824 C-26.88220631 60.83636459 -26.88220631 60.83636459 -27 58 C-42.345 54.535 -42.345 54.535 -58 51 C-58 47 -58 47 -56.0859375 45.0625 C-54.74402344 44.0415625 -54.74402344 44.0415625 -53.375 43 C-52.37210938 42.21625 -51.36921875 41.4325 -50.3359375 40.625 C-49.79420898 40.20347656 -49.25248047 39.78195313 -48.69433594 39.34765625 C-45.72303788 36.98431832 -42.86840416 34.48631791 -40 32 C-35.87646644 28.44419124 -31.72786697 24.93203319 -27.5 21.5 C-22.57382849 17.50067853 -17.75072407 13.39082883 -12.9453125 9.24804688 C-11.83914027 8.29458288 -10.73159514 7.34270893 -9.62255859 6.39257812 C-8.516723 5.44348299 -7.41565843 4.4888072 -6.31884766 3.52929688 C-2.222431 0 -2.222431 0 0 0 Z " fill="#4E38F3" transform="translate(68,0)"/>
<path d="M0 0 C6.93 0 13.86 0 21 0 C21 2.97 21 5.94 21 9 C18.33333333 9 15.66666667 9 13 9 C13.495 9.61875 13.99 10.2375 14.5 10.875 C16 13 16 13 16 15 C18.475 15.495 18.475 15.495 21 16 C21.02689216 17.47906892 21.04634621 18.95827483 21.0625 20.4375 C21.07410156 21.26121094 21.08570313 22.08492187 21.09765625 22.93359375 C21 25 21 25 20 26 C18.59651265 26.09860131 17.18819523 26.13078937 15.78125 26.1328125 C14.50701172 26.13474609 14.50701172 26.13474609 13.20703125 26.13671875 C11.86705078 26.13091797 11.86705078 26.13091797 10.5 26.125 C9.60667969 26.12886719 8.71335938 26.13273437 7.79296875 26.13671875 C6.94347656 26.13542969 6.09398437 26.13414063 5.21875 26.1328125 C4.43435547 26.13168457 3.64996094 26.13055664 2.84179688 26.12939453 C1 26 1 26 0 25 C-0.04063832 23.33382885 -0.042721 21.66611905 0 20 C0.66 20 1.32 20 2 20 C2 15.38 2 10.76 2 6 C1.34 6 0.68 6 0 6 C0 4.02 0 2.04 0 0 Z M9 6 C10 10 10 10 10 10 Z M9 15 C9 16.65 9 18.3 9 20 C9.33 20 9.66 20 10 20 C10 18.35 10 16.7 10 15 C9.67 15 9.34 15 9 15 Z M11 16 C12 18 12 18 12 18 Z M13 16 C14 20 14 20 14 20 Z " fill="#3E33E8" transform="translate(144,44)"/>
<path d="M0 0 C2.5625 2.375 2.5625 2.375 2.9375 5.625 C2.81375 6.5325 2.69 7.44 2.5625 8.375 C1.2425 8.705 -0.0775 9.035 -1.4375 9.375 C-0.7775 9.890625 -0.1175 10.40625 0.5625 10.9375 C2.5625 13.375 2.5625 13.375 3.125 16.8125 C2.5625 20.375 2.5625 20.375 0.5625 23.3125 C-2.55617555 25.45658944 -4.56938211 26.11598693 -8.3671875 25.86328125 C-12.05527399 24.99344953 -14.92972799 23.21254019 -17.4375 20.375 C-17.875 17.5625 -17.875 17.5625 -17.4375 15.375 C-16.1175 14.715 -14.7975 14.055 -13.4375 13.375 C-13.9325 12.83875 -14.4275 12.3025 -14.9375 11.75 C-16.86852443 8.69254465 -16.88272837 6.936827 -16.4375 3.375 C-12.81322073 -3.01063491 -6.18076675 -2.92181701 0 0 Z M-9.4375 5.375 C-8.4375 7.375 -8.4375 7.375 -8.4375 7.375 Z M-5.4375 5.375 C-4.4375 8.375 -4.4375 8.375 -4.4375 8.375 Z M-8.4375 15.375 C-8.4375 18.375 -8.4375 18.375 -8.4375 18.375 Z M-5.4375 16.375 C-4.4375 18.375 -4.4375 18.375 -4.4375 18.375 Z " fill="#4034DC" transform="translate(225.4375,44.625)"/>
<path d="M0 0 C6.6 0 13.2 0 20 0 C20 6.72222222 20 6.72222222 17 9.75 C14.55699843 11.97196849 14.55699843 11.97196849 14 15 C16.97 15.495 16.97 15.495 20 16 C20.02689216 17.47906892 20.04634621 18.95827483 20.0625 20.4375 C20.07410156 21.26121094 20.08570313 22.08492187 20.09765625 22.93359375 C20 25 20 25 19 26 C17.66956375 26.0983721 16.33406656 26.13078592 15 26.1328125 C14.195625 26.13410156 13.39125 26.13539062 12.5625 26.13671875 C11.716875 26.13285156 10.87125 26.12898438 10 26.125 C9.154375 26.12886719 8.30875 26.13273437 7.4375 26.13671875 C6.633125 26.13542969 5.82875 26.13414063 5 26.1328125 C4.2575 26.13168457 3.515 26.13055664 2.75 26.12939453 C1 26 1 26 0 25 C-0.58293273 20.85874871 -0.20076482 19.29469407 2.1875 15.7890625 C3.11018206 14.72138755 4.04821714 13.66681637 5 12.625 C5.47695312 12.07972656 5.95390625 11.53445312 6.4453125 10.97265625 C7.61709722 9.63682167 8.80682005 8.3167593 10 7 C9.01 6.67 8.02 6.34 7 6 C6.67 7.32 6.34 8.64 6 10 C4.33388095 10.042721 2.66617115 10.04063832 1 10 C0.67 9.67 0.34 9.34 0 9 C0 6.03 0 3.06 0 0 Z M12 15 C11.67 15.66 11.34 16.32 11 17 C11.66 17.66 12.32 18.32 13 19 C12.67 17.68 12.34 16.36 12 15 Z " fill="#4236DF" transform="translate(112,44)"/>
<path d="M0 0 C3.63 0 7.26 0 11 0 C11.97608217 2.92824652 12.08226668 4.95613276 12 8 C13.35439668 5.29120665 13.06501451 2.99066732 13 0 C16.63 0 20.26 0 24 0 C24 5 24 5 22.25 6.9375 C21.5075 7.618125 20.765 8.29875 20 9 C17.28759399 12.64237379 15.53448021 15.45691823 15 20 C15.99 20 16.98 20 18 20 C18 21.98 18 23.96 18 26 C16.18757948 26.02687279 14.37504767 26.04633715 12.5625 26.0625 C11.55316406 26.07410156 10.54382813 26.08570312 9.50390625 26.09765625 C7 26 7 26 6 25 C5.95936168 23.33382885 5.957279 21.66611905 6 20 C6.99 20 7.98 20 9 20 C7.75216096 14.44144429 5.79141419 10.30179687 2 6 C1.34 5.67 0.68 5.34 0 5 C0 3.35 0 1.7 0 0 Z " fill="#4535E1" transform="translate(239,44)"/>
<path d="M0 0 C7.59 0 15.18 0 23 0 C23 2.64 23 5.28 23 8 C21.35 8.33 19.7 8.66 18 9 C17.67 7.68 17.34 6.36 17 5 C16.34 5 15.68 5 15 5 C15 9.95 15 14.9 15 20 C15.66 20 16.32 20 17 20 C17 21.98 17 23.96 17 26 C13.37 26 9.74 26 6 26 C5.67 24.35 5.34 22.7 5 21 C5.99 20.67 6.98 20.34 8 20 C8 15.05 8 10.1 8 5 C7.34 5 6.68 5 6 5 C5.67 6.32 5.34 7.64 5 9 C3.35 8.67 1.7 8.34 0 8 C0 5.36 0 2.72 0 0 Z " fill="#4635E7" transform="translate(175,44)"/>
<path d="M0 0 C2.5625 2.375 2.5625 2.375 2.9375 5.625 C2.81375 6.5325 2.69 7.44 2.5625 8.375 C0.2525 8.375 -2.0575 8.375 -4.4375 8.375 C-4.7675 7.385 -5.0975 6.395 -5.4375 5.375 C-6.0975 5.375 -6.7575 5.375 -7.4375 5.375 C-7.4375 6.365 -7.4375 7.355 -7.4375 8.375 C-8.4275 8.375 -9.4175 8.375 -10.4375 8.375 C-10.4375 6.395 -10.4375 4.415 -10.4375 2.375 C-11.7575 2.705 -13.0775 3.035 -14.4375 3.375 C-14.4375 5.685 -14.4375 7.995 -14.4375 10.375 C-13.7775 10.375 -13.1175 10.375 -12.4375 10.375 C-12.4375 11.035 -12.4375 11.695 -12.4375 12.375 C-11.1175 12.375 -9.7975 12.375 -8.4375 12.375 C-8.4375 13.035 -8.4375 13.695 -8.4375 14.375 C-11.34350261 15.63164978 -13.23354584 16.375 -16.4375 16.375 C-16.7675 17.695 -17.0975 19.015 -17.4375 20.375 C-17.4375 18.725 -17.4375 17.075 -17.4375 15.375 C-16.1175 14.715 -14.7975 14.055 -13.4375 13.375 C-13.9325 12.83875 -14.4275 12.3025 -14.9375 11.75 C-16.86852443 8.69254465 -16.88272837 6.936827 -16.4375 3.375 C-12.81322073 -3.01063491 -6.18076675 -2.92181701 0 0 Z M-9.4375 5.375 C-8.4375 7.375 -8.4375 7.375 -8.4375 7.375 Z " fill="#4339CE" transform="translate(225.4375,44.625)"/>
<path d="M0 0 C0 1.98 0 3.96 0 6 C0.99 5.67 1.98 5.34 3 5 C3.33 4.01 3.66 3.02 4 2 C5 3 5 3 5.0625 5.5625 C5.041875 6.366875 5.02125 7.17125 5 8 C5.66 8 6.32 8 7 8 C7 8.66 7 9.32 7 10 C8.32 10.33 9.64 10.66 11 11 C12.125 16.75 12.125 16.75 11 19 C10.34 19 9.68 19 9 19 C9 19.66 9 20.32 9 21 C8.34 21 7.68 21 7 21 C6.17361624 18.10765685 6 16.11257569 6 13 C4.68 13 3.36 13 2 13 C2 12.01 2 11.02 2 10 C0.68 10 -0.64 10 -2 10 C-2 9.34 -2 8.68 -2 8 C-2.66 8 -3.32 8 -4 8 C-4 5.69 -4 3.38 -4 1 C-2 0 -2 0 0 0 Z " fill="#4633F3" transform="translate(215,47)"/>
<path d="M0 0 C2.475 0.495 2.475 0.495 5 1 C5.33 7.27 5.66 13.54 6 20 C6.66 19.67 7.32 19.34 8 19 C8.33 13.39 8.66 7.78 9 2 C9.33 2 9.66 2 10 2 C10 6.62 10 11.24 10 16 C10.66 16 11.32 16 12 16 C12 17.98 12 19.96 12 22 C8.37 22 4.74 22 1 22 C0.67 20.35 0.34 18.7 0 17 C0.99 16.67 1.98 16.34 3 16 C3 11.05 3 6.1 3 1 C2.34 1 1.68 1 1 1 C0.67 1.99 0.34 2.98 0 4 C0 2.68 0 1.36 0 0 Z " fill="#3937D2" transform="translate(180,48)"/>
<path d="M0 0 C0 0.99 0 1.98 0 3 C0.94978897 5.15028304 0.94978897 5.15028304 2 7 C-1.06117568 9.62386487 -1.73173127 10 -6 10 C-6.33 10.66 -6.66 11.32 -7 12 C-5.78763672 12.29003906 -5.78763672 12.29003906 -4.55078125 12.5859375 C-3.48214844 12.84632812 -2.41351563 13.10671875 -1.3125 13.375 C-0.25675781 13.63023438 0.79898437 13.88546875 1.88671875 14.1484375 C4.70406766 14.91905489 7.31668325 15.85498543 10 17 C6.88925167 17.9867097 4.83557243 17.96838493 1.671875 17.22265625 C0.87265625 17.03896484 0.0734375 16.85527344 -0.75 16.66601562 C-1.575 16.46685547 -2.4 16.26769531 -3.25 16.0625 C-4.51070312 15.76956055 -4.51070312 15.76956055 -5.796875 15.47070312 C-7.86648898 14.98857714 -9.93351395 14.49536137 -12 14 C-12 12.68 -12 11.36 -12 10 C-9.62890625 7.67578125 -9.62890625 7.67578125 -6.5625 5.3125 C-5.55316406 4.52488281 -4.54382813 3.73726562 -3.50390625 2.92578125 C-2.26447266 1.97251953 -2.26447266 1.97251953 -1 1 C-0.67 0.67 -0.34 0.34 0 0 Z " fill="#4733E8" transform="translate(22,37)"/>
<path d="M0 0 C-0.515625 0.37125 -1.03125 0.7425 -1.5625 1.125 C-3.36608095 3.02533489 -3.36608095 3.02533489 -2.625 6.125 C-2.315625 7.548125 -2.315625 7.548125 -2 9 C-2.33 9.33 -2.66 9.66 -3 10 C-2.01 10.66 -1.02 11.32 0 12 C-0.66 13.65 -1.32 15.3 -2 17 C-1.67 17.33 -1.34 17.66 -1 18 C-1.4375 20.0625 -1.4375 20.0625 -2 22 C-4.31 22 -6.62 22 -9 22 C-9 20.68 -9 19.36 -9 18 C-8.34 17.67 -7.68 17.34 -7 17 C-6.56903756 14.74458242 -6.56903756 14.74458242 -6.4375 12.125 C-6.22371654 9.13203161 -5.95571043 6.8671313 -5 4 C-5.38932856 1.85744207 -5.38932856 1.85744207 -6 0 C-3.50907189 -1.24546405 -2.58919267 -0.7767578 0 0 Z " fill="#3F2FF1" transform="translate(154,47)"/>
<path d="M0 0 C6.93 0 13.86 0 21 0 C21 2.97 21 5.94 21 9 C13.57142857 9.28571429 13.57142857 9.28571429 10 7 C9.01 8.485 9.01 8.485 8 10 C8 8.35 8 6.7 8 5 C9.65 4.67 11.3 4.34 13 4 C13 3.34 13 2.68 13 2 C14.65 2.33 16.3 2.66 18 3 C17 6 17 6 15 8 C16.32 8 17.64 8 19 8 C19 5.69 19 3.38 19 1 C13.06 1 7.12 1 1 1 C1.33 2.65 1.66 4.3 2 6 C1.34 6 0.68 6 0 6 C0 4.02 0 2.04 0 0 Z " fill="#4A3ED3" transform="translate(144,44)"/>
<path d="M0 0 C-1.42466486 8.68372495 -3.45105756 17.16405496 -5.625 25.6875 C-5.95345899 26.9862437 -6.28158598 28.28507142 -6.609375 29.58398438 C-7.40300566 32.72349389 -8.19994219 35.86212339 -9 39 C-9.66 39 -10.32 39 -11 39 C-11 37.35 -11 35.7 -11 34 C-10.34 34 -9.68 34 -9 34 C-9.020625 32.865625 -9.04125 31.73125 -9.0625 30.5625 C-9 27 -9 27 -8 26 C-7.76739444 24.03946745 -7.53588556 22.07879198 -7.3125 20.1171875 C-6.89195305 17.2679819 -5.97808681 14.70412236 -5 12 C-4.30635271 9.67368629 -3.65456843 7.33774439 -3 5 C-3.99 4.67 -4.98 4.34 -6 4 C-2.25 0 -2.25 0 0 0 Z " fill="#4B3ECA" transform="translate(68,0)"/>
<path d="M0 0 C0.20140476 3.62528568 -0.14223235 5.86501708 -2 9 C-1.34 9 -0.68 9 0 9 C0 9.66 0 10.32 0 11 C-0.99 11 -1.98 11 -3 11 C-3.33 11.99 -3.66 12.98 -4 14 C-5.65 13.67 -7.3 13.34 -9 13 C-8.04754618 7.96560123 -6.46281974 0 0 0 Z " fill="#3D2CF0" transform="translate(123,54)"/>
<path d="M0 0 C1.04973814 4.19895255 0.72795155 6.79405774 0 11 C1.3303125 9.88625 1.3303125 9.88625 2.6875 8.75 C3.2340625 8.29882812 3.780625 7.84765625 4.34375 7.3828125 C5.81340659 6.15578789 7.25287627 4.89280702 8.6875 3.625 C9.8321875 2.820625 9.8321875 2.820625 11 2 C11.99 2.33 12.98 2.66 14 3 C11.77772959 4.9666642 9.54782865 6.92327449 7.3125 8.875 C6.68666016 9.43058594 6.06082031 9.98617187 5.41601562 10.55859375 C4.80048828 11.09355469 4.18496094 11.62851563 3.55078125 12.1796875 C2.99044189 12.67194824 2.43010254 13.16420898 1.8527832 13.67138672 C0 15 0 15 -5 17 C-3.35 11.39 -1.7 5.78 0 0 Z " fill="#4436C7" transform="translate(34,85)"/>
<path d="M0 0 C0.763125 0.185625 1.52625 0.37125 2.3125 0.5625 C5.08967375 1.22819173 5.08967375 1.22819173 8 0 C6.55575365 3.23861303 4.74227753 5.61969163 2.375 8.25 C1.74335937 8.95640625 1.11171875 9.6628125 0.4609375 10.390625 C-0.26222656 11.18726563 -0.26222656 11.18726563 -1 12 C-1 8.61976483 -0.12544378 6.16531063 1 3 C0.34 3 -0.32 3 -1 3 C-1.66 4.32 -2.32 5.64 -3 7 C-3.99 7 -4.98 7 -6 7 C-4.02 4.69 -2.04 2.38 0 0 Z " fill="#4034D4" transform="translate(122,51)"/>
<path d="M0 0 C0.66 0.33 1.32 0.66 2 1 C0.02 3.31 -1.96 5.62 -4 8 C-2.83984375 8.05607422 -2.83984375 8.05607422 -1.65625 8.11328125 C4.82241629 8.52220697 10.05882698 9.37217347 16 12 C12.88925167 12.9867097 10.83557243 12.96838493 7.671875 12.22265625 C6.47304688 11.94711914 6.47304688 11.94711914 5.25 11.66601562 C4.0125 11.36727539 4.0125 11.36727539 2.75 11.0625 C1.48929688 10.76956055 1.48929688 10.76956055 0.203125 10.47070312 C-1.86648898 9.98857714 -3.93351395 9.49536137 -6 9 C-6 5 -6 5 -4.6875 3.515625 C-3.125 2.34375 -1.5625 1.171875 0 0 Z " fill="#493AC1" transform="translate(16,42)"/>
<path d="M0 0 C2.475 0.495 2.475 0.495 5 1 C5.33 6.94 5.66 12.88 6 19 C4 19 2 19 0 19 C0.495 17.515 0.495 17.515 1 16 C1.66 16 2.32 16 3 16 C3 11.05 3 6.1 3 1 C2.34 1 1.68 1 1 1 C0.67 1.99 0.34 2.98 0 4 C0 2.68 0 1.36 0 0 Z " fill="#443BCF" transform="translate(180,48)"/>
<path d="M0 0 C1.6256807 0.30893932 3.25052748 0.6222695 4.875 0.9375 C5.77992187 1.11152344 6.68484375 1.28554688 7.6171875 1.46484375 C10 2 10 2 12 3 C10.46116172 7.61651485 6.88101136 9.41265909 3 12 C3.99 9.03 4.98 6.06 6 3 C3.03 2.505 3.03 2.505 0 2 C0 1.34 0 0.68 0 0 Z " fill="#4436D1" transform="translate(78,47)"/>
<path d="M0 0 C0.33 0.66 0.66 1.32 1 2 C3.52733235 2.65555119 3.52733235 2.65555119 6 3 C6.02689216 4.47906892 6.04634621 5.95827483 6.0625 7.4375 C6.07410156 8.26121094 6.08570313 9.08492187 6.09765625 9.93359375 C6 12 6 12 5 13 C3.58429877 13.08651611 2.164405 13.10704904 0.74609375 13.09765625 C-0.10791016 13.09443359 -0.96191406 13.09121094 -1.84179688 13.08789062 C-2.73962891 13.07951172 -3.63746094 13.07113281 -4.5625 13.0625 C-5.46419922 13.05798828 -6.36589844 13.05347656 -7.29492188 13.04882812 C-9.53001314 13.03700225 -11.76497437 13.0205222 -14 13 C-14 12.67 -14 12.34 -14 12 C-8.06 12 -2.12 12 4 12 C4 9.36 4 6.72 4 4 C2.35 4 0.7 4 -1 4 C-0.67 2.68 -0.34 1.36 0 0 Z " fill="#4943C3" transform="translate(159,57)"/>
<path d="M0 0 C0.99 0.33 1.98 0.66 3 1 C2.01 1.495 2.01 1.495 1 2 C0.690625 2.969375 0.38125 3.93875 0.0625 4.9375 C-1 8 -1 8 -4 10 C-4.33 8.35 -4.66 6.7 -5 5 C-5.99 4.67 -6.98 4.34 -8 4 C-8.33 3.01 -8.66 2.02 -9 1 C-6.625 0.8125 -6.625 0.8125 -4 1 C-3.34 1.99 -2.68 2.98 -2 4 C-1.34 2.68 -0.68 1.36 0 0 Z " fill="#432FF4" transform="translate(254,51)"/>
<path d="M0 0 C0.99 0.33 1.98 0.66 3 1 C3.02712066 2.43739513 3.04645067 3.87493863 3.0625 5.3125 C3.07410156 6.11300781 3.08570313 6.91351563 3.09765625 7.73828125 C3 10 3 10 2 13 C4.64 13.33 7.28 13.66 10 14 C10 12.35 10 10.7 10 9 C10.33 9 10.66 9 11 9 C11 10.98 11 12.96 11 15 C9.18757948 15.02687279 7.37504767 15.04633715 5.5625 15.0625 C4.55316406 15.07410156 3.54382813 15.08570312 2.50390625 15.09765625 C0 15 0 15 -1 14 C-1.04063832 12.33382885 -1.042721 10.66611905 -1 9 C-0.01 9 0.98 9 2 9 C1.34 6.03 0.68 3.06 0 0 Z " fill="#463AC1" transform="translate(246,55)"/>
<path d="M0 0 C0.99 0.33 1.98 0.66 3 1 C0.79521554 2.92088071 -1.41362186 4.83673521 -3.625 6.75 C-4.24246094 7.28882812 -4.85992187 7.82765625 -5.49609375 8.3828125 C-9.17956559 11.5622303 -12.88938452 14.39450219 -17 17 C-14.20325371 11.40650741 -12.1892439 9.0630813 -6 7 C-6 6.34 -6 5.68 -6 5 C-3.1875 2.3125 -3.1875 2.3125 0 0 Z " fill="#4534C4" transform="translate(65,70)"/>
<path d="M0 0 C0 1.98 0 3.96 0 6 C1.32 6.33 2.64 6.66 4 7 C3.67 7.66 3.34 8.32 3 9 C0.69 8.67 -1.62 8.34 -4 8 C-4 5.69 -4 3.38 -4 1 C-2 0 -2 0 0 0 Z " fill="#4732F6" transform="translate(215,47)"/>
<path d="M0 0 C0.33 0 0.66 0 1 0 C1.5644718 7.33813334 -0.44672896 13.16088115 -3 20 C-3.66 20 -4.32 20 -5 20 C-3.76583013 13.17576662 -2.1084005 6.60632156 0 0 Z " fill="#4D3DCF" transform="translate(40,64)"/>
<path d="M0 0 C-0.99 0.495 -0.99 0.495 -2 1 C-1.34 2.65 -0.68 4.3 0 6 C-1.32 6.33 -2.64 6.66 -4 7 C-4 6.34 -4 5.68 -4 5 C-5.32 5 -6.64 5 -8 5 C-8 3.68 -8 2.36 -8 1 C-5.07175348 0.02391783 -3.04386724 -0.08226668 0 0 Z " fill="#3C2EF1" transform="translate(217,60)"/>
<path d="M0 0 C0.66 0.33 1.32 0.66 2 1 C2 2.65 2 4.3 2 6 C2.66 6 3.32 6 4 6 C4.33 6.99 4.66 7.98 5 9 C3.02 9.66 1.04 10.32 -1 11 C-1 10.01 -1 9.02 -1 8 C-2.32 8 -3.64 8 -5 8 C-5 7.34 -5 6.68 -5 6 C-2.525 6.495 -2.525 6.495 0 7 C0 4.69 0 2.38 0 0 Z " fill="#3628EE" transform="translate(218,49)"/>
<path d="M0 0 C0.99 0.66 1.98 1.32 3 2 C3 3.32 3 4.64 3 6 C1.68 6 0.36 6 -1 6 C-2.04115841 4.69855198 -3.03886134 3.36161311 -4 2 C-6.08334635 0.7483533 -6.08334635 0.7483533 -8 0 C-5.08931154 -1.45534423 -3.1172005 -0.69977971 0 0 Z " fill="#4231F3" transform="translate(224,46)"/>
<path d="M0 0 C0.99 0 1.98 0 3 0 C2.67 2.97 2.34 5.94 2 9 C1.34 9 0.68 9 0 9 C0 9.66 0 10.32 0 11 C-1.65 11.33 -3.3 11.66 -5 12 C-5 11.34 -5 10.68 -5 10 C-4.34 10 -3.68 10 -3 10 C-2.9175 9.443125 -2.835 8.88625 -2.75 8.3125 C-1.77389987 5.30285794 -0.04811186 3.37845248 2 1 C1.34 0.67 0.68 0.34 0 0 Z M0 6 C1 8 1 8 1 8 Z " fill="#3F3FDA" transform="translate(155,54)"/>
<path d="M0 0 C6.875 2.75 6.875 2.75 8 5 C8.5824233 11.29017161 8.5824233 11.29017161 6 14.4375 C5.01 15.2109375 5.01 15.2109375 4 16 C4 15.01 4 14.02 4 13 C4.66 13 5.32 13 6 13 C6.20970559 8.85906302 6.20970559 8.85906302 5 5 C4.01 4.67 3.02 4.34 2 4 C2 3.34 2 2.68 2 2 C1.34 2 0.68 2 0 2 C0 1.34 0 0.68 0 0 Z " fill="#483FCC" transform="translate(220,53)"/>
<path d="M0 0 C1.65 0 3.3 0 5 0 C5 1.65 5 3.3 5 5 C3.02 5.99 3.02 5.99 1 7 C0.01 6.01 -0.98 5.02 -2 4 C-1.34 2.68 -0.68 1.36 0 0 Z " fill="#4638F3" transform="translate(158,61)"/>
<path d="M0 0 C1.65 0 3.3 0 5 0 C6 3 6 3 5.0625 5.1875 C4.5365625 6.0846875 4.5365625 6.0846875 4 7 C2.68 6.34 1.36 5.68 0 5 C0 3.35 0 1.7 0 0 Z " fill="#4935F6" transform="translate(123,46)"/>
<path d="M0 0 C5.61589298 -0.29047722 9.09825932 -0.10842092 14 3 C14.33 3.66 14.66 4.32 15 5 C14.01 5 13.02 5 12 5 C10.29467677 6.94009522 10.29467677 6.94009522 9 9 C9 7.02 9 5.04 9 3 C4.545 2.01 4.545 2.01 0 1 C0 0.67 0 0.34 0 0 Z " fill="#4E3ED6" transform="translate(32,55)"/>
<path d="M0 0 C0 3 0 3 -2.1875 5.26171875 C-3.115625 6.06222656 -4.04375 6.86273438 -5 7.6875 C-5.928125 8.49574219 -6.85625 9.30398437 -7.8125 10.13671875 C-8.8953125 11.05904297 -8.8953125 11.05904297 -10 12 C-10.99 11.67 -11.98 11.34 -13 11 C-8.71 7.37 -4.42 3.74 0 0 Z " fill="#493AC9" transform="translate(53,11)"/>
<path d="M0 0 C0 0.66 0 1.32 0 2 C-0.99 2 -1.98 2 -3 2 C-3.33 2.99 -3.66 3.98 -4 5 C-5.65 4.67 -7.3 4.34 -9 4 C-9 3.01 -9 2.02 -9 1 C-6.04335481 -0.4783226 -3.25770263 -0.06032783 0 0 Z " fill="#4837F3" transform="translate(123,63)"/>
<path d="M0 0 C1.32 0.33 2.64 0.66 4 1 C4 2.32 4 3.64 4 5 C3 6 3 6 0.4375 6.0625 C-0.7690625 6.0315625 -0.7690625 6.0315625 -2 6 C-2.33 4.68 -2.66 3.36 -3 2 C-2.01 2.495 -2.01 2.495 -1 3 C-0.67 2.01 -0.34 1.02 0 0 Z M2 2 C3 4 3 4 3 4 Z " fill="#3340DB" transform="translate(218,59)"/>
<path d="M0 0 C-0.515625 0.37125 -1.03125 0.7425 -1.5625 1.125 C-3.36319983 3.03173152 -3.36319983 3.03173152 -2.6875 6.1875 C-2.460625 7.115625 -2.23375 8.04375 -2 9 C-2.99 9.66 -3.98 10.32 -5 11 C-5.93423645 7.98968256 -6.04449911 7.13349732 -5 4 C-5.38932856 1.85744207 -5.38932856 1.85744207 -6 0 C-3.50907189 -1.24546405 -2.58919267 -0.7767578 0 0 Z " fill="#4932FA" transform="translate(154,47)"/>
<path d="M0 0 C2.4375 2 2.4375 2 4 4 C3.38125 3.835 2.7625 3.67 2.125 3.5 C-2.25470729 2.79924683 -6.57428989 2.92265749 -11 3 C-8.9254602 -1.1490796 -4.06631082 -0.35669393 0 0 Z " fill="#473CC0" transform="translate(222,43)"/>
<path d="M0 0 C0.99 0.33 1.98 0.66 3 1 C-0.96 4.3 -4.92 7.6 -9 11 C-9 8 -9 8 -7.03125 5.95703125 C-6.1959375 5.24933594 -5.360625 4.54164062 -4.5 3.8125 C-3.6646875 3.09707031 -2.829375 2.38164063 -1.96875 1.64453125 C-1.3190625 1.10183594 -0.669375 0.55914062 0 0 Z " fill="#4134C1" transform="translate(78,59)"/>
<path d="M0 0 C2.31 0.33 4.62 0.66 7 1 C7 3.97 7 6.94 7 10 C6.67 10 6.34 10 6 10 C6 7.36 6 4.72 6 2 C5.34 2 4.68 2 4 2 C4 2.66 4 3.32 4 4 C3.01 4.33 2.02 4.66 1 5 C0.67 3.35 0.34 1.7 0 0 Z " fill="#4139DA" transform="translate(125,59)"/>
<path d="M0 0 C1.20628008 2.33214148 2.1654738 4.49642139 3 7 C0.69 7 -1.62 7 -4 7 C-3.67 6.01 -3.34 5.02 -3 4 C-2.01 4 -1.02 4 0 4 C-0.33 3.01 -0.66 2.02 -1 1 C-0.67 0.67 -0.34 0.34 0 0 Z " fill="#3527F0" transform="translate(123,61)"/>
<path d="M0 0 C1.65 0 3.3 0 5 0 C5 2.31 5 4.62 5 7 C3.68 7 2.36 7 1 7 C2 4 2 4 4 2 C2.68 1.34 1.36 0.68 0 0 Z " fill="#4232F1" transform="translate(158,45)"/>
<path d="M0 0 C0.33 0.66 0.66 1.32 1 2 C1.66 2.33 2.32 2.66 3 3 C2.67 4.32 2.34 5.64 2 7 C0.68 6.67 -0.64 6.34 -2 6 C-1.34 4.02 -0.68 2.04 0 0 Z " fill="#2C25DE" transform="translate(154,51)"/>
<path d="M0 0 C2 1 2 1 2 1 Z " fill="#4040FF" transform="translate(126,58)"/>
<path d="" fill="#0000FF" transform="translate(0,0)"/>
<path d="" fill="#5555AA" transform="translate(0,0)"/>
<path d="" fill="#404080" transform="translate(0,0)"/>
</svg>
